<?xml version="1.0" standalone="no"?>
<!DOCTYPE svg PUBLIC "-//W3C//DTD SVG 20010904//EN"
 "http://www.w3.org/TR/2001/REC-SVG-20010904/DTD/svg10.dtd">
<svg version="1.0" xmlns="http://www.w3.org/2000/svg"
 width="280.000000pt" height="280.000000pt" viewBox="0 0 280.000000 280.000000"
 preserveAspectRatio="xMidYMid meet">
<metadata>
Created by potrace 1.14, written by Peter Selinger 2001-2017
</metadata>
<g transform="translate(0.000000,280.000000) scale(0.100000,-0.100000)"
fill="#000000" stroke="none">
<path d="M1266 2759 c-577 -56 -1066 -480 -1201 -1041 -113 -474 30 -969 376
-1304 645 -621 1688 -476 2140 297 135 232 203 533 179 794 -64 678 -577 1191
-1255 1255 -60 5 -119 9 -130 9 -11 -1 -60 -6 -109 -10z m409 -349 c200 -55
346 -139 490 -284 142 -144 211 -273 251 -467 20 -99 15 -290 -10 -384 -58
-215 -214 -375 -406 -416 -88 -19 -214 -8 -288 26 -66 30 -137 98 -148 142 -4
13 -8 23 -10 23 -2 0 -20 -18 -40 -40 -132 -146 -362 -202 -517 -126 -71 34
-139 109 -168 184 -31 80 -32 216 -1 330 74 277 229 445 482 524 66 20 95 23
240 23 139 0 180 -4 258 -24 62 -15 92 -27 92 -37 0 -8 -14 -76 -31 -152 -56
-253 -99 -467 -99 -497 1 -55 35 -114 77 -132 82 -34 210 5 267 80 120 157
122 413 5 638 -96 185 -299 334 -524 385 -101 23 -269 20 -370 -5 -169 -44
-339 -152 -445 -284 -64 -80 -134 -220 -161 -322 -29 -111 -29 -289 0 -400 99
-374 418 -625 796 -626 135 -1 235 19 333 66 41 19 76 35 78 35 2 0 4 -54 4
-120 l0 -120 -37 -15 c-110 -46 -193 -59 -373 -59 -147 0 -187 4 -252 22 -381
105 -667 395 -759 767 -26 106 -35 288 -20 396 64 435 391 786 821 880 119 26
350 21 465 -11z"/>
<path d="M1336 1650 c-96 -37 -176 -143 -211 -276 -19 -73 -19 -104 0 -152 40
-100 190 -95 279 10 52 60 73 114 107 271 16 78 32 148 34 155 7 21 -150 15
-209 -8z"/>
</g>
</svg>
